solid model
facet normal 0.0 0.0 -1.0
outer loop
vertex 15.24 20.32 0.0
vertex 0.0 0.0 0.0
vertex 0.0 20.32 0.0
endloop
endfacet
facet normal 0.0 0.0 -1.0
outer loop
vertex 0.0 0.0 0.0
vertex 15.24 20.32 0.0
vertex 15.24 10.16 0.0
endloop
endfacet
facet normal 0.0 0.0 -1.0
outer loop
vertex 0.0 0.0 0.0
vertex 15.24 10.16 0.0
vertex 30.48 0.0 0.0
endloop
endfacet
facet normal 0.0 0.0 -1.0
outer loop
vertex 30.48 0.0 0.0
vertex 15.24 10.16 0.0
vertex 30.48 10.16 0.0
endloop
endfacet
facet normal 0.0 1.0 0.0
outer loop
vertex 15.24 10.16 10.16
vertex 30.48 10.16 0.0
vertex 15.24 10.16 0.0
endloop
endfacet
facet normal 0.0 1.0 0.0
outer loop
vertex 30.48 10.16 0.0
vertex 15.24 10.16 10.16
vertex 22.86 10.16 10.16
endloop
endfacet
facet normal 0.0 1.0 0.0
outer loop
vertex 30.48 10.16 0.0
vertex 22.86 10.16 10.16
vertex 30.48 10.16 20.32
endloop
endfacet
facet normal 0.0 1.0 0.0
outer loop
vertex 30.48 10.16 20.32
vertex 22.86 10.16 10.16
vertex 22.86 10.16 20.32
endloop
endfacet
facet normal 1.0 0.0 0.0
outer loop
vertex 30.48 10.16 0.0
vertex 30.48 0.0 20.32
vertex 30.48 0.0 0.0
endloop
endfacet
facet normal 1.0 0.0 0.0
outer loop
vertex 30.48 0.0 20.32
vertex 30.48 10.16 0.0
vertex 30.48 10.16 20.32
endloop
endfacet
facet normal 0.0 -1.0 0.0
outer loop
vertex 30.48 0.0 0.0
vertex 22.86 0.0 10.16
vertex 0.0 0.0 0.0
endloop
endfacet
facet normal 0.0 -1.0 0.0
outer loop
vertex 22.86 0.0 10.16
vertex 30.48 0.0 0.0
vertex 30.48 0.0 20.32
endloop
endfacet
facet normal 0.0 -1.0 0.0
outer loop
vertex 22.86 0.0 10.16
vertex 30.48 0.0 20.32
vertex 22.86 0.0 20.32
endloop
endfacet
facet normal 0.0 -1.0 0.0
outer loop
vertex 0.0 0.0 10.16
vertex 0.0 0.0 0.0
vertex 22.86 0.0 10.16
endloop
endfacet
facet normal -1.0 0.0 0.0
outer loop
vertex 0.0 20.32 10.16
vertex 0.0 0.0 0.0
vertex 0.0 0.0 10.16
endloop
endfacet
facet normal -1.0 0.0 0.0
outer loop
vertex 0.0 0.0 0.0
vertex 0.0 20.32 10.16
vertex 0.0 20.32 0.0
endloop
endfacet
facet normal 0.0 0.0 1.0
outer loop
vertex 22.86 0.0 10.16
vertex 0.0 20.32 10.16
vertex 0.0 0.0 10.16
endloop
endfacet
facet normal 0.0 0.0 1.0
outer loop
vertex 0.0 20.32 10.16
vertex 22.86 0.0 10.16
vertex 15.24 10.16 10.16
endloop
endfacet
facet normal 0.0 0.0 1.0
outer loop
vertex 15.24 10.16 10.16
vertex 22.86 0.0 10.16
vertex 22.86 10.16 10.16
endloop
endfacet
facet normal 0.0 0.0 1.0
outer loop
vertex 15.24 20.32 10.16
vertex 0.0 20.32 10.16
vertex 15.24 10.16 10.16
endloop
endfacet
facet normal 0.0 0.0 1.0
outer loop
vertex 30.48 0.0 20.32
vertex 22.86 10.16 20.32
vertex 22.86 0.0 20.32
endloop
endfacet
facet normal 0.0 0.0 1.0
outer loop
vertex 22.86 10.16 20.32
vertex 30.48 0.0 20.32
vertex 30.48 10.16 20.32
endloop
endfacet
facet normal -1.0 0.0 0.0
outer loop
vertex 22.86 10.16 20.32
vertex 22.86 0.0 10.16
vertex 22.86 0.0 20.32
endloop
endfacet
facet normal -1.0 0.0 0.0
outer loop
vertex 22.86 0.0 10.16
vertex 22.86 10.16 20.32
vertex 22.86 10.16 10.16
endloop
endfacet
facet normal 0.0 1.0 0.0
outer loop
vertex 0.0 20.32 10.16
vertex 15.24 20.32 0.0
vertex 0.0 20.32 0.0
endloop
endfacet
facet normal 0.0 1.0 0.0
outer loop
vertex 15.24 20.32 0.0
vertex 0.0 20.32 10.16
vertex 15.24 20.32 10.16
endloop
endfacet
facet normal 1.0 0.0 0.0
outer loop
vertex 15.24 20.32 0.0
vertex 15.24 10.16 10.16
vertex 15.24 10.16 0.0
endloop
endfacet
facet normal 1.0 0.0 0.0
outer loop
vertex 15.24 10.16 10.16
vertex 15.24 20.32 0.0
vertex 15.24 20.32 10.16
endloop
endfacet
endsolid model
