solid model
facet normal 0.0 0.0 -1.0
outer loop
vertex 20.32 20.32 0.0
vertex 0.0 0.0 0.0
vertex 0.0 20.32 0.0
endloop
endfacet
facet normal 0.0 0.0 -1.0
outer loop
vertex 0.0 0.0 0.0
vertex 20.32 20.32 0.0
vertex 20.32 0.0 0.0
endloop
endfacet
facet normal 1.0 0.0 0.0
outer loop
vertex 20.32 20.32 0.0
vertex 20.32 0.0 22.86
vertex 20.32 0.0 0.0
endloop
endfacet
facet normal 1.0 0.0 0.0
outer loop
vertex 20.32 0.0 22.86
vertex 20.32 20.32 0.0
vertex 20.32 10.16 15.24
endloop
endfacet
facet normal 1.0 0.0 0.0
outer loop
vertex 20.32 10.16 15.24
vertex 20.32 20.32 0.0
vertex 20.32 20.32 15.24
endloop
endfacet
facet normal 1.0 0.0 0.0
outer loop
vertex 20.32 10.16 22.86
vertex 20.32 0.0 22.86
vertex 20.32 10.16 15.24
endloop
endfacet
facet normal 0.0 -1.0 0.0
outer loop
vertex 20.32 0.0 22.86
vertex 0.0 0.0 0.0
vertex 20.32 0.0 0.0
endloop
endfacet
facet normal 0.0 -1.0 0.0
outer loop
vertex 0.0 0.0 0.0
vertex 20.32 0.0 22.86
vertex 10.16 0.0 22.86
endloop
endfacet
facet normal 0.0 -1.0 0.0
outer loop
vertex 0.0 0.0 0.0
vertex 10.16 0.0 22.86
vertex 0.0 0.0 30.48
endloop
endfacet
facet normal 0.0 -1.0 0.0
outer loop
vertex 0.0 0.0 30.48
vertex 10.16 0.0 22.86
vertex 10.16 0.0 30.48
endloop
endfacet
facet normal -1.0 0.0 0.0
outer loop
vertex 0.0 10.16 30.48
vertex 0.0 0.0 0.0
vertex 0.0 0.0 30.48
endloop
endfacet
facet normal -1.0 0.0 0.0
outer loop
vertex 0.0 0.0 0.0
vertex 0.0 10.16 30.48
vertex 0.0 10.16 15.24
endloop
endfacet
facet normal -1.0 0.0 0.0
outer loop
vertex 0.0 0.0 0.0
vertex 0.0 10.16 15.24
vertex 0.0 20.32 0.0
endloop
endfacet
facet normal -1.0 0.0 0.0
outer loop
vertex 0.0 20.32 0.0
vertex 0.0 10.16 15.24
vertex 0.0 20.32 15.24
endloop
endfacet
facet normal 0.0 1.0 0.0
outer loop
vertex 0.0 10.16 30.48
vertex 20.32 10.16 15.24
vertex 0.0 10.16 15.24
endloop
endfacet
facet normal 0.0 1.0 0.0
outer loop
vertex 20.32 10.16 15.24
vertex 0.0 10.16 30.48
vertex 10.16 10.16 22.86
endloop
endfacet
facet normal 0.0 1.0 0.0
outer loop
vertex 10.16 10.16 22.86
vertex 0.0 10.16 30.48
vertex 10.16 10.16 30.48
endloop
endfacet
facet normal 0.0 1.0 0.0
outer loop
vertex 20.32 10.16 22.86
vertex 20.32 10.16 15.24
vertex 10.16 10.16 22.86
endloop
endfacet
facet normal 0.0 1.0 0.0
outer loop
vertex 0.0 20.32 15.24
vertex 20.32 20.32 0.0
vertex 0.0 20.32 0.0
endloop
endfacet
facet normal 0.0 1.0 0.0
outer loop
vertex 20.32 20.32 0.0
vertex 0.0 20.32 15.24
vertex 20.32 20.32 15.24
endloop
endfacet
facet normal 0.0 0.0 1.0
outer loop
vertex 20.32 10.16 15.24
vertex 0.0 20.32 15.24
vertex 0.0 10.16 15.24
endloop
endfacet
facet normal 0.0 0.0 1.0
outer loop
vertex 0.0 20.32 15.24
vertex 20.32 10.16 15.24
vertex 20.32 20.32 15.24
endloop
endfacet
facet normal 0.0 0.0 1.0
outer loop
vertex 20.32 0.0 22.86
vertex 10.16 10.16 22.86
vertex 10.16 0.0 22.86
endloop
endfacet
facet normal 0.0 0.0 1.0
outer loop
vertex 10.16 10.16 22.86
vertex 20.32 0.0 22.86
vertex 20.32 10.16 22.86
endloop
endfacet
facet normal 0.0 0.0 1.0
outer loop
vertex 10.16 0.0 30.48
vertex 0.0 10.16 30.48
vertex 0.0 0.0 30.48
endloop
endfacet
facet normal 0.0 0.0 1.0
outer loop
vertex 0.0 10.16 30.48
vertex 10.16 0.0 30.48
vertex 10.16 10.16 30.48
endloop
endfacet
facet normal 1.0 0.0 0.0
outer loop
vertex 10.16 10.16 22.86
vertex 10.16 0.0 30.48
vertex 10.16 0.0 22.86
endloop
endfacet
facet normal 1.0 0.0 0.0
outer loop
vertex 10.16 0.0 30.48
vertex 10.16 10.16 22.86
vertex 10.16 10.16 30.48
endloop
endfacet
endsolid model
