solid model
facet normal 0.0 0.0 1.0
outer loop
vertex 5.08 0.0 15.24
vertex 0.0 5.08 15.24
vertex 0.0 0.0 15.24
endloop
endfacet
facet normal 0.0 0.0 1.0
outer loop
vertex 0.0 5.08 15.24
vertex 5.08 0.0 15.24
vertex 5.08 5.08 15.24
endloop
endfacet
facet normal 0.0 0.0 1.0
outer loop
vertex 10.16 5.08 7.62000000000001
vertex 0.0 10.16 7.62000000000001
vertex 0.0 5.08 7.62000000000001
endloop
endfacet
facet normal 0.0 0.0 1.0
outer loop
vertex 0.0 10.16 7.62000000000001
vertex 10.16 5.08 7.62000000000001
vertex 10.16 10.16 7.62000000000001
endloop
endfacet
facet normal 1.0 0.0 0.0
outer loop
vertex 5.08 5.08 11.43
vertex 5.08 0.0 15.24
vertex 5.08 0.0 11.43
endloop
endfacet
facet normal 1.0 0.0 0.0
outer loop
vertex 5.08 0.0 15.24
vertex 5.08 5.08 11.43
vertex 5.08 5.08 15.24
endloop
endfacet
facet normal 0.0 0.0 1.0
outer loop
vertex 10.16 0.0 11.43
vertex 5.08 5.08 11.43
vertex 5.08 0.0 11.43
endloop
endfacet
facet normal 0.0 0.0 1.0
outer loop
vertex 5.08 5.08 11.43
vertex 10.16 0.0 11.43
vertex 10.16 5.08 11.43
endloop
endfacet
facet normal -1.0 0.0 0.0
outer loop
vertex 0.0 10.16 7.62000000000001
vertex 0.0 5.08 0.0
vertex 0.0 5.08 7.62000000000001
endloop
endfacet
facet normal -1.0 0.0 0.0
outer loop
vertex 0.0 5.08 0.0
vertex 0.0 10.16 7.62000000000001
vertex 0.0 10.16 0.0
endloop
endfacet
facet normal 0.0 1.0 0.0
outer loop
vertex 0.0 5.08 7.62000000000001
vertex 10.16 5.08 0.0
vertex 0.0 5.08 0.0
endloop
endfacet
facet normal 0.0 1.0 0.0
outer loop
vertex 10.16 5.08 0.0
vertex 0.0 5.08 7.62000000000001
vertex 10.16 5.08 7.62000000000001
endloop
endfacet
facet normal 1.0 0.0 0.0
outer loop
vertex 10.16 10.16 0.0
vertex 10.16 5.08 7.62000000000001
vertex 10.16 5.08 0.0
endloop
endfacet
facet normal 1.0 0.0 0.0
outer loop
vertex 10.16 5.08 7.62000000000001
vertex 10.16 10.16 0.0
vertex 10.16 10.16 7.62000000000001
endloop
endfacet
facet normal 0.0 0.0 -1.0
outer loop
vertex 10.16 10.16 0.0
vertex 0.0 5.08 0.0
vertex 0.0 10.16 0.0
endloop
endfacet
facet normal 0.0 0.0 -1.0
outer loop
vertex 0.0 5.08 0.0
vertex 10.16 10.16 0.0
vertex 10.16 5.08 0.0
endloop
endfacet
facet normal 1.0 0.0 0.0
outer loop
vertex 10.16 5.08 0.0
vertex 10.16 0.0 11.43
vertex 10.16 0.0 0.0
endloop
endfacet
facet normal 1.0 0.0 0.0
outer loop
vertex 10.16 0.0 11.43
vertex 10.16 5.08 0.0
vertex 10.16 5.08 11.43
endloop
endfacet
facet normal 1.0 0.0 0.0
outer loop
vertex 10.16 5.08 11.43
vertex 10.16 5.08 0.0
vertex 10.16 5.08 7.62000000000001
endloop
endfacet
facet normal 0.0 1.0 0.0
outer loop
vertex 0.0 10.16 7.62000000000001
vertex 10.16 10.16 0.0
vertex 0.0 10.16 0.0
endloop
endfacet
facet normal 0.0 1.0 0.0
outer loop
vertex 10.16 10.16 0.0
vertex 0.0 10.16 7.62000000000001
vertex 10.16 10.16 7.62000000000001
endloop
endfacet
facet normal 0.0 -1.0 0.0
outer loop
vertex 10.16 0.0 11.43
vertex 0.0 0.0 0.0
vertex 10.16 0.0 0.0
endloop
endfacet
facet normal 0.0 -1.0 0.0
outer loop
vertex 0.0 0.0 0.0
vertex 10.16 0.0 11.43
vertex 5.08 0.0 11.43
endloop
endfacet
facet normal 0.0 -1.0 0.0
outer loop
vertex 0.0 0.0 0.0
vertex 5.08 0.0 11.43
vertex 0.0 0.0 15.24
endloop
endfacet
facet normal 0.0 -1.0 0.0
outer loop
vertex 0.0 0.0 15.24
vertex 5.08 0.0 11.43
vertex 5.08 0.0 15.24
endloop
endfacet
facet normal 0.0 1.0 0.0
outer loop
vertex 0.0 5.08 7.62000000000001
vertex 5.08 5.08 11.43
vertex 10.16 5.08 7.62000000000001
endloop
endfacet
facet normal 0.0 1.0 0.0
outer loop
vertex 5.08 5.08 11.43
vertex 0.0 5.08 7.62000000000001
vertex 0.0 5.08 15.24
endloop
endfacet
facet normal 0.0 1.0 0.0
outer loop
vertex 5.08 5.08 11.43
vertex 0.0 5.08 15.24
vertex 5.08 5.08 15.24
endloop
endfacet
facet normal 0.0 1.0 0.0
outer loop
vertex 10.16 5.08 11.43
vertex 10.16 5.08 7.62000000000001
vertex 5.08 5.08 11.43
endloop
endfacet
facet normal -1.0 0.0 0.0
outer loop
vertex 0.0 5.08 15.24
vertex 0.0 0.0 0.0
vertex 0.0 0.0 15.24
endloop
endfacet
facet normal -1.0 0.0 0.0
outer loop
vertex 0.0 0.0 0.0
vertex 0.0 5.08 15.24
vertex 0.0 5.08 0.0
endloop
endfacet
facet normal -1.0 0.0 0.0
outer loop
vertex 0.0 5.08 0.0
vertex 0.0 5.08 15.24
vertex 0.0 5.08 7.62000000000001
endloop
endfacet
facet normal 0.0 0.0 -1.0
outer loop
vertex 10.16 5.08 0.0
vertex 0.0 0.0 0.0
vertex 0.0 5.08 0.0
endloop
endfacet
facet normal 0.0 0.0 -1.0
outer loop
vertex 0.0 0.0 0.0
vertex 10.16 5.08 0.0
vertex 10.16 0.0 0.0
endloop
endfacet
endsolid model
