solid model
facet normal 0.0 0.0 1.0
outer loop
vertex 5.08 -10.16 15.24
vertex 0.0 1.12798659301916e-015 15.24
vertex 0.0 -10.16 15.24
endloop
endfacet
facet normal 0.0 0.0 1.0
outer loop
vertex 0.0 1.12798659301916e-015 15.24
vertex 5.08 -10.16 15.24
vertex 5.08 1.12798659301916e-015 15.24
endloop
endfacet
facet normal 0.0 0.0 -1.0
outer loop
vertex 5.08 -5.08000000000001 11.43
vertex 0.0 -10.16 11.43
vertex 0.0 -5.08000000000001 11.43
endloop
endfacet
facet normal 0.0 0.0 -1.0
outer loop
vertex 0.0 -10.16 11.43
vertex 5.08 -5.08000000000001 11.43
vertex 5.08 -10.16 11.43
endloop
endfacet
facet normal 0.0 -1.0 0.0
outer loop
vertex 10.16 -5.08000000000001 3.81
vertex 0.0 -5.08000000000001 0.0
vertex 10.16 -5.08000000000001 0.0
endloop
endfacet
facet normal 0.0 -1.0 0.0
outer loop
vertex 0.0 -5.08000000000001 0.0
vertex 10.16 -5.08000000000001 3.81
vertex 5.08 -5.08000000000001 3.81
endloop
endfacet
facet normal 0.0 -1.0 0.0
outer loop
vertex 0.0 -5.08000000000001 0.0
vertex 5.08 -5.08000000000001 3.81
vertex 0.0 -5.08000000000001 11.43
endloop
endfacet
facet normal 0.0 -1.0 0.0
outer loop
vertex 0.0 -5.08000000000001 11.43
vertex 5.08 -5.08000000000001 3.81
vertex 5.08 -5.08000000000001 11.43
endloop
endfacet
facet normal 0.0 0.0 1.0
outer loop
vertex 10.16 -5.08000000000001 3.81
vertex 5.08 1.12798659301916e-015 3.81
vertex 5.08 -5.08000000000001 3.81
endloop
endfacet
facet normal 0.0 0.0 1.0
outer loop
vertex 5.08 1.12798659301916e-015 3.81
vertex 10.16 -5.08000000000001 3.81
vertex 10.16 1.12798659301916e-015 3.81
endloop
endfacet
facet normal 1.0 0.0 0.0
outer loop
vertex 5.08 1.12798659301916e-015 3.81
vertex 5.08 -5.08000000000001 11.43
vertex 5.08 -5.08000000000001 3.81
endloop
endfacet
facet normal 1.0 0.0 0.0
outer loop
vertex 5.08 -5.08000000000001 11.43
vertex 5.08 -10.16 15.24
vertex 5.08 -10.16 11.43
endloop
endfacet
facet normal 1.0 0.0 0.0
outer loop
vertex 5.08 -10.16 15.24
vertex 5.08 -5.08000000000001 11.43
vertex 5.08 1.12798659301916e-015 15.24
endloop
endfacet
facet normal 1.0 0.0 0.0
outer loop
vertex 5.08 1.12798659301916e-015 15.24
vertex 5.08 -5.08000000000001 11.43
vertex 5.08 1.12798659301916e-015 3.81
endloop
endfacet
facet normal 1.0 0.0 0.0
outer loop
vertex 10.16 1.12798659301916e-015 0.0
vertex 10.16 -5.08000000000001 3.81
vertex 10.16 -5.08000000000001 0.0
endloop
endfacet
facet normal 1.0 0.0 0.0
outer loop
vertex 10.16 -5.08000000000001 3.81
vertex 10.16 1.12798659301916e-015 0.0
vertex 10.16 1.12798659301916e-015 3.81
endloop
endfacet
facet normal 0.0 -1.0 0.0
outer loop
vertex 5.08 -10.16 15.24
vertex 0.0 -10.16 11.43
vertex 5.08 -10.16 11.43
endloop
endfacet
facet normal 0.0 -1.0 0.0
outer loop
vertex 0.0 -10.16 11.43
vertex 5.08 -10.16 15.24
vertex 0.0 -10.16 15.24
endloop
endfacet
facet normal -1.0 0.0 0.0
outer loop
vertex 0.0 1.12798659301916e-015 15.24
vertex 0.0 -10.16 11.43
vertex 0.0 -10.16 15.24
endloop
endfacet
facet normal -1.0 0.0 0.0
outer loop
vertex 0.0 -10.16 11.43
vertex 0.0 1.12798659301916e-015 15.24
vertex 0.0 -5.08000000000001 11.43
endloop
endfacet
facet normal -1.0 0.0 0.0
outer loop
vertex 0.0 -5.08000000000001 11.43
vertex 0.0 1.12798659301916e-015 15.24
vertex 0.0 -5.08000000000001 0.0
endloop
endfacet
facet normal -1.0 0.0 0.0
outer loop
vertex 0.0 -5.08000000000001 0.0
vertex 0.0 1.12798659301916e-015 15.24
vertex 0.0 1.12798659301916e-015 0.0
endloop
endfacet
facet normal 0.0 1.0 0.0
outer loop
vertex 0.0 1.12798659301916e-015 0.0
vertex 5.08 1.12798659301916e-015 3.81
vertex 10.16 1.12798659301916e-015 0.0
endloop
endfacet
facet normal 0.0 1.0 0.0
outer loop
vertex 5.08 1.12798659301916e-015 3.81
vertex 0.0 1.12798659301916e-015 0.0
vertex 0.0 1.12798659301916e-015 15.24
endloop
endfacet
facet normal 0.0 1.0 0.0
outer loop
vertex 5.08 1.12798659301916e-015 3.81
vertex 0.0 1.12798659301916e-015 15.24
vertex 5.08 1.12798659301916e-015 15.24
endloop
endfacet
facet normal 0.0 1.0 0.0
outer loop
vertex 10.16 1.12798659301916e-015 3.81
vertex 10.16 1.12798659301916e-015 0.0
vertex 5.08 1.12798659301916e-015 3.81
endloop
endfacet
facet normal 0.0 0.0 -1.0
outer loop
vertex 10.16 1.12798659301916e-015 0.0
vertex 0.0 -5.08000000000001 0.0
vertex 0.0 1.12798659301916e-015 0.0
endloop
endfacet
facet normal 0.0 0.0 -1.0
outer loop
vertex 0.0 -5.08000000000001 0.0
vertex 10.16 1.12798659301916e-015 0.0
vertex 10.16 -5.08000000000001 0.0
endloop
endfacet
endsolid model
